<mxfile host="app.diagrams.net" modified="2022-04-11T11:42:58.607Z" agent="5.0 (Windows NT 10.0; Win64; x64) AppleWebKit/537.36 (KHTML, like Gecko) Chrome/100.0.4896.75 Safari/537.36" etag="DWV2B39l_o735bn2ExPU" version="17.2.1" type="github">
  <diagram id="2nsL1LFUvanWacsJYGi9" name="Page-1">
    <mxGraphModel dx="1209" dy="555" grid="1" gridSize="10" guides="1" tooltips="1" connect="1" arrows="1" fold="1" page="1" pageScale="1" pageWidth="583" pageHeight="827" math="0" shadow="0">
      <root>
        <mxCell id="0" />
        <mxCell id="1" parent="0" />
        <mxCell id="oUaC9rFFqyBbcRLpYag--1" style="edgeStyle=elbowEdgeStyle;rounded=0;orthogonalLoop=1;jettySize=auto;html=1;endArrow=open;endFill=0;strokeColor=#545B64;strokeWidth=2;fontSize=14;elbow=vertical;shape=flexArrow;" parent="1" target="oUaC9rFFqyBbcRLpYag--6" edge="1">
          <mxGeometry relative="1" as="geometry">
            <mxPoint x="230" y="494.5" as="sourcePoint" />
            <mxPoint x="320" y="495" as="targetPoint" />
          </mxGeometry>
        </mxCell>
        <mxCell id="oUaC9rFFqyBbcRLpYag--2" value="&lt;font style=&quot;font-size: 14px&quot;&gt;管理员&lt;/font&gt;" style="outlineConnect=0;fontColor=#232F3E;gradientColor=none;fillColor=#232F3E;strokeColor=none;dashed=0;verticalLabelPosition=bottom;verticalAlign=top;align=center;html=1;fontSize=12;fontStyle=0;aspect=fixed;pointerEvents=1;shape=mxgraph.aws4.user;labelBackgroundColor=none;" parent="1" vertex="1">
          <mxGeometry x="40" y="470" width="68" height="68" as="geometry" />
        </mxCell>
        <mxCell id="oUaC9rFFqyBbcRLpYag--3" value="&lt;font style=&quot;font-size: 14px&quot;&gt;原始视频数据集&lt;/font&gt;" style="text;html=1;resizable=0;autosize=1;align=center;verticalAlign=middle;points=[];fillColor=none;strokeColor=none;rounded=0;" parent="1" vertex="1">
          <mxGeometry x="114" y="544" width="110" height="20" as="geometry" />
        </mxCell>
        <mxCell id="oUaC9rFFqyBbcRLpYag--4" value="" style="sketch=0;outlineConnect=0;fontColor=#232F3E;gradientColor=none;fillColor=#232F3E;strokeColor=none;dashed=0;verticalLabelPosition=bottom;verticalAlign=top;align=center;html=1;fontSize=12;fontStyle=0;aspect=fixed;pointerEvents=1;shape=mxgraph.aws4.multimedia;" parent="1" vertex="1">
          <mxGeometry x="135" y="470" width="68" height="63.64" as="geometry" />
        </mxCell>
        <mxCell id="oUaC9rFFqyBbcRLpYag--5" value="" style="endArrow=classic;html=1;fillColor=#1ba1e2;strokeColor=#006EAF;strokeWidth=3;" parent="1" edge="1">
          <mxGeometry width="50" height="50" relative="1" as="geometry">
            <mxPoint x="40" y="560" as="sourcePoint" />
            <mxPoint x="520" y="860" as="targetPoint" />
            <Array as="points">
              <mxPoint x="40" y="860" />
              <mxPoint x="310" y="860" />
            </Array>
          </mxGeometry>
        </mxCell>
        <mxCell id="oUaC9rFFqyBbcRLpYag--6" value="视频处理与解析模块" style="swimlane;fillColor=#0050ef;strokeColor=#1A1A1A;fontColor=#FFFFFF;strokeWidth=3;fontSize=18;" parent="1" vertex="1">
          <mxGeometry x="300" y="400" width="362" height="210" as="geometry" />
        </mxCell>
        <mxCell id="oUaC9rFFqyBbcRLpYag--103" value="" style="endArrow=classic;html=1;rounded=0;edgeStyle=orthogonalEdgeStyle;" parent="oUaC9rFFqyBbcRLpYag--6" edge="1">
          <mxGeometry width="50" height="50" relative="1" as="geometry">
            <mxPoint x="98" y="100" as="sourcePoint" />
            <mxPoint x="158" y="100" as="targetPoint" />
            <Array as="points">
              <mxPoint x="138" y="100" />
              <mxPoint x="138" y="100" />
            </Array>
          </mxGeometry>
        </mxCell>
        <mxCell id="oUaC9rFFqyBbcRLpYag--104" value="" style="sketch=0;points=[[0,0,0],[0.25,0,0],[0.5,0,0],[0.75,0,0],[1,0,0],[0,1,0],[0.25,1,0],[0.5,1,0],[0.75,1,0],[1,1,0],[0,0.25,0],[0,0.5,0],[0,0.75,0],[1,0.25,0],[1,0.5,0],[1,0.75,0]];outlineConnect=0;fontColor=#232F3E;gradientColor=#4D72F3;gradientDirection=north;fillColor=#3334B9;strokeColor=#ffffff;dashed=0;verticalLabelPosition=bottom;verticalAlign=top;align=center;html=1;fontSize=12;fontStyle=0;aspect=fixed;shape=mxgraph.aws4.resourceIcon;resIcon=mxgraph.aws4.customer_enablement;" parent="oUaC9rFFqyBbcRLpYag--6" vertex="1">
          <mxGeometry x="165" y="80" width="50" height="50" as="geometry" />
        </mxCell>
        <mxCell id="oUaC9rFFqyBbcRLpYag--105" value="&lt;font style=&quot;font-size: 16px&quot;&gt;视频集&lt;/font&gt;" style="text;html=1;resizable=0;autosize=1;align=center;verticalAlign=middle;points=[];fillColor=none;strokeColor=none;rounded=0;fontSize=16;" parent="oUaC9rFFqyBbcRLpYag--6" vertex="1">
          <mxGeometry x="160" y="140" width="60" height="20" as="geometry" />
        </mxCell>
        <mxCell id="oUaC9rFFqyBbcRLpYag--107" value="" style="sketch=0;outlineConnect=0;fontColor=#232F3E;gradientColor=none;fillColor=#FF9900;strokeColor=none;dashed=0;verticalLabelPosition=bottom;verticalAlign=top;align=center;html=1;fontSize=12;fontStyle=0;aspect=fixed;pointerEvents=1;shape=mxgraph.aws4.container_registry_image;" parent="oUaC9rFFqyBbcRLpYag--6" vertex="1">
          <mxGeometry x="283" y="77" width="48" height="48" as="geometry" />
        </mxCell>
        <mxCell id="oUaC9rFFqyBbcRLpYag--108" value="&lt;font style=&quot;font-size: 15px&quot;&gt;数字水印&lt;/font&gt;" style="text;html=1;resizable=0;autosize=1;align=center;verticalAlign=middle;points=[];fillColor=none;strokeColor=none;rounded=0;fontSize=15;" parent="oUaC9rFFqyBbcRLpYag--6" vertex="1">
          <mxGeometry x="25" y="140" width="80" height="20" as="geometry" />
        </mxCell>
        <mxCell id="oUaC9rFFqyBbcRLpYag--110" value="人脸关键帧" style="text;html=1;resizable=0;autosize=1;align=center;verticalAlign=middle;points=[];fillColor=none;strokeColor=none;rounded=0;fontSize=16;" parent="oUaC9rFFqyBbcRLpYag--6" vertex="1">
          <mxGeometry x="256" y="140" width="100" height="20" as="geometry" />
        </mxCell>
        <mxCell id="oUaC9rFFqyBbcRLpYag--117" style="edgeStyle=orthogonalEdgeStyle;rounded=0;orthogonalLoop=1;jettySize=auto;html=1;entryX=1;entryY=0.5;entryDx=0;entryDy=0;entryPerimeter=0;fontSize=12;fontColor=#000000;strokeWidth=3;fillColor=#008a00;strokeColor=#005700;" parent="1" source="oUaC9rFFqyBbcRLpYag--32" target="oUaC9rFFqyBbcRLpYag--111" edge="1">
          <mxGeometry relative="1" as="geometry">
            <Array as="points">
              <mxPoint x="900" y="835" />
            </Array>
          </mxGeometry>
        </mxCell>
        <mxCell id="oUaC9rFFqyBbcRLpYag--32" value="深伪视频检测模块" style="swimlane;fillColor=#0050EF;strokeColor=#000000;fontColor=#ffffff;strokeWidth=3;fontSize=18;" parent="1" vertex="1">
          <mxGeometry x="790" y="398.75" width="230" height="211.25" as="geometry" />
        </mxCell>
        <mxCell id="oUaC9rFFqyBbcRLpYag--115" value="&lt;font style=&quot;font-size: 16px&quot;&gt;特征图&lt;/font&gt;" style="sketch=0;outlineConnect=0;fontColor=#232F3E;gradientColor=none;fillColor=#56C0A7;strokeColor=none;dashed=0;verticalLabelPosition=bottom;verticalAlign=top;align=center;html=1;fontSize=12;fontStyle=0;aspect=fixed;pointerEvents=1;shape=mxgraph.aws4.sagemaker_model;" parent="oUaC9rFFqyBbcRLpYag--32" vertex="1">
          <mxGeometry x="85" y="121.25" width="47" height="47" as="geometry" />
        </mxCell>
        <mxCell id="oUaC9rFFqyBbcRLpYag--116" value="&lt;font style=&quot;font-size: 16px&quot;&gt;卷积网络&lt;/font&gt;" style="sketch=0;points=[[0,0,0],[0.25,0,0],[0.5,0,0],[0.75,0,0],[1,0,0],[0,1,0],[0.25,1,0],[0.5,1,0],[0.75,1,0],[1,1,0],[0,0.25,0],[0,0.5,0],[0,0.75,0],[1,0.25,0],[1,0.5,0],[1,0.75,0]];outlineConnect=0;fontColor=#000000;gradientColor=#4AB29A;gradientDirection=north;fillColor=#ffffff;strokeColor=#000000;dashed=0;verticalLabelPosition=bottom;verticalAlign=top;align=center;html=1;fontSize=12;fontStyle=0;aspect=fixed;shape=mxgraph.aws4.resourceIcon;resIcon=mxgraph.aws4.deep_learning_amis;fontFamily=Helvetica;" parent="oUaC9rFFqyBbcRLpYag--32" vertex="1">
          <mxGeometry x="63.5" y="41.25" width="90" height="40" as="geometry" />
        </mxCell>
        <mxCell id="oUaC9rFFqyBbcRLpYag--70" value="平台告警模块" style="swimlane;startSize=23;fillColor=#0050EF;strokeColor=#000000;fontColor=#ffffff;fontSize=18;strokeWidth=3;" parent="1" vertex="1">
          <mxGeometry x="480" y="690" width="260" height="250" as="geometry" />
        </mxCell>
        <mxCell id="oUaC9rFFqyBbcRLpYag--27" style="edgeStyle=orthogonalEdgeStyle;rounded=0;orthogonalLoop=1;jettySize=auto;html=1;strokeColor=#FF8000;strokeWidth=3;" parent="oUaC9rFFqyBbcRLpYag--70" edge="1">
          <mxGeometry relative="1" as="geometry">
            <mxPoint x="170" y="120" as="targetPoint" />
            <Array as="points">
              <mxPoint x="-117" y="44" />
              <mxPoint x="170" y="44" />
              <mxPoint x="170" y="89" />
            </Array>
            <mxPoint x="-117" y="-100" as="sourcePoint" />
          </mxGeometry>
        </mxCell>
        <mxCell id="oUaC9rFFqyBbcRLpYag--111" value="" style="sketch=0;points=[[0,0,0],[0.25,0,0],[0.5,0,0],[0.75,0,0],[1,0,0],[0,1,0],[0.25,1,0],[0.5,1,0],[0.75,1,0],[1,1,0],[0,0.25,0],[0,0.5,0],[0,0.75,0],[1,0.25,0],[1,0.5,0],[1,0.75,0]];outlineConnect=0;fontColor=#232F3E;gradientColor=#4D72F3;gradientDirection=north;fillColor=#3334B9;strokeColor=#ffffff;dashed=0;verticalLabelPosition=bottom;verticalAlign=top;align=center;html=1;fontSize=12;fontStyle=0;aspect=fixed;shape=mxgraph.aws4.resourceIcon;resIcon=mxgraph.aws4.database;" parent="oUaC9rFFqyBbcRLpYag--70" vertex="1">
          <mxGeometry x="150" y="120" width="50" height="50" as="geometry" />
        </mxCell>
        <mxCell id="oUaC9rFFqyBbcRLpYag--112" value="" style="sketch=0;points=[[0,0,0],[0.25,0,0],[0.5,0,0],[0.75,0,0],[1,0,0],[0,1,0],[0.25,1,0],[0.5,1,0],[0.75,1,0],[1,1,0],[0,0.25,0],[0,0.5,0],[0,0.75,0],[1,0.25,0],[1,0.5,0],[1,0.75,0]];outlineConnect=0;fontColor=#232F3E;gradientColor=#945DF2;gradientDirection=north;fillColor=#5A30B5;strokeColor=#ffffff;dashed=0;verticalLabelPosition=bottom;verticalAlign=top;align=center;html=1;fontSize=12;fontStyle=0;aspect=fixed;shape=mxgraph.aws4.resourceIcon;resIcon=mxgraph.aws4.analytics;" parent="oUaC9rFFqyBbcRLpYag--70" vertex="1">
          <mxGeometry x="50" y="80" width="49" height="49" as="geometry" />
        </mxCell>
        <mxCell id="oUaC9rFFqyBbcRLpYag--113" value="" style="sketch=0;outlineConnect=0;fontColor=#232F3E;gradientColor=none;fillColor=#56C0A7;strokeColor=none;dashed=0;verticalLabelPosition=bottom;verticalAlign=top;align=center;html=1;fontSize=12;fontStyle=0;aspect=fixed;pointerEvents=1;shape=mxgraph.aws4.sagemaker_notebook;" parent="oUaC9rFFqyBbcRLpYag--70" vertex="1">
          <mxGeometry x="56.25" y="160" width="36.5" height="41.87" as="geometry" />
        </mxCell>
        <mxCell id="oUaC9rFFqyBbcRLpYag--94" value="&lt;font style=&quot;font-size: 16px&quot;&gt;水印已存在&lt;/font&gt;" style="text;html=1;resizable=0;autosize=1;align=center;verticalAlign=middle;points=[];fillColor=none;strokeColor=none;rounded=0;" parent="1" vertex="1">
          <mxGeometry x="370" y="690" width="100" height="20" as="geometry" />
        </mxCell>
        <mxCell id="oUaC9rFFqyBbcRLpYag--95" style="edgeStyle=orthogonalEdgeStyle;rounded=0;orthogonalLoop=1;jettySize=auto;html=1;fillColor=#1ba1e2;strokeColor=#006EAF;strokeWidth=3;" parent="1" edge="1">
          <mxGeometry relative="1" as="geometry">
            <mxPoint x="100" y="560" as="targetPoint" />
            <mxPoint x="520" y="790" as="sourcePoint" />
            <Array as="points">
              <mxPoint x="100" y="790" />
            </Array>
          </mxGeometry>
        </mxCell>
        <mxCell id="oUaC9rFFqyBbcRLpYag--96" value="" style="shape=flexArrow;endArrow=classic;html=1;strokeColor=default;strokeWidth=3;fillColor=none;exitX=1;exitY=0.5;exitDx=0;exitDy=0;entryX=0;entryY=0.5;entryDx=0;entryDy=0;" parent="1" source="oUaC9rFFqyBbcRLpYag--6" target="oUaC9rFFqyBbcRLpYag--32" edge="1">
          <mxGeometry width="50" height="50" relative="1" as="geometry">
            <mxPoint x="720" y="520" as="sourcePoint" />
            <mxPoint x="830" y="520" as="targetPoint" />
          </mxGeometry>
        </mxCell>
        <mxCell id="oUaC9rFFqyBbcRLpYag--97" value="短视频 APP 后台" style="swimlane;fontSize=16;align=center;swimlaneFillColor=#f4f4f4;fillColor=#0050ef;collapsible=0;startSize=33;strokeColor=#001DBC;fontColor=#ffffff;" parent="1" vertex="1">
          <mxGeometry x="20" y="401" width="210" height="177" as="geometry" />
        </mxCell>
        <mxCell id="oUaC9rFFqyBbcRLpYag--98" value="&lt;font style=&quot;font-size: 14px&quot;&gt;管理员&lt;/font&gt;" style="outlineConnect=0;fontColor=#232F3E;gradientColor=none;fillColor=#232F3E;strokeColor=none;dashed=0;verticalLabelPosition=bottom;verticalAlign=top;align=center;html=1;fontSize=12;fontStyle=0;aspect=fixed;pointerEvents=1;shape=mxgraph.aws4.user;labelBackgroundColor=none;" parent="oUaC9rFFqyBbcRLpYag--97" vertex="1">
          <mxGeometry x="20" y="69" width="68" height="68" as="geometry" />
        </mxCell>
        <mxCell id="oUaC9rFFqyBbcRLpYag--99" value="&lt;font style=&quot;font-size: 14px&quot;&gt;原始视频数据集&lt;/font&gt;" style="text;html=1;resizable=0;autosize=1;align=center;verticalAlign=middle;points=[];fillColor=none;strokeColor=none;rounded=0;" parent="oUaC9rFFqyBbcRLpYag--97" vertex="1">
          <mxGeometry x="94" y="143" width="110" height="20" as="geometry" />
        </mxCell>
        <mxCell id="oUaC9rFFqyBbcRLpYag--100" value="" style="sketch=0;outlineConnect=0;fontColor=#232F3E;gradientColor=none;fillColor=#232F3E;strokeColor=none;dashed=0;verticalLabelPosition=bottom;verticalAlign=top;align=center;html=1;fontSize=12;fontStyle=0;aspect=fixed;pointerEvents=1;shape=mxgraph.aws4.multimedia;" parent="oUaC9rFFqyBbcRLpYag--97" vertex="1">
          <mxGeometry x="115" y="69" width="68" height="63.64" as="geometry" />
        </mxCell>
        <mxCell id="oUaC9rFFqyBbcRLpYag--102" value="" style="sketch=0;outlineConnect=0;fontColor=#232F3E;gradientColor=none;fillColor=#FF4F8B;strokeColor=none;dashed=0;verticalLabelPosition=bottom;verticalAlign=top;align=center;html=1;fontSize=12;fontStyle=0;aspect=fixed;pointerEvents=1;shape=mxgraph.aws4.certificate_manager_2;fontFamily=Helvetica;" parent="1" vertex="1">
          <mxGeometry x="337.5" y="477.5" width="52.5" height="52.5" as="geometry" />
        </mxCell>
        <mxCell id="oUaC9rFFqyBbcRLpYag--109" value="" style="endArrow=classic;html=1;rounded=0;edgeStyle=orthogonalEdgeStyle;" parent="1" edge="1">
          <mxGeometry width="50" height="50" relative="1" as="geometry">
            <mxPoint x="521" y="502" as="sourcePoint" />
            <mxPoint x="581" y="502" as="targetPoint" />
            <Array as="points">
              <mxPoint x="561" y="502" />
              <mxPoint x="561" y="502" />
            </Array>
          </mxGeometry>
        </mxCell>
        <mxCell id="oUaC9rFFqyBbcRLpYag--114" style="edgeStyle=orthogonalEdgeStyle;rounded=0;orthogonalLoop=1;jettySize=auto;html=1;fontSize=12;fontColor=#000000;" parent="1" source="oUaC9rFFqyBbcRLpYag--111" edge="1">
          <mxGeometry relative="1" as="geometry">
            <mxPoint x="580" y="835" as="targetPoint" />
          </mxGeometry>
        </mxCell>
      </root>
    </mxGraphModel>
  </diagram>
</mxfile>
